<?xml version="1.0" encoding="UTF-8" standalone="no"?>
<!-- Generator: Adobe Illustrator 19.0.0, SVG Export Plug-In . SVG Version: 6.00 Build 0)  -->

<svg
   version="1.1"
   id="Layer_1"
   x="0px"
   y="0px"
   viewBox="0 0 960 560"
   style="enable-background:new 0 0 960 560;"
   xml:space="preserve"
   sodipodi:docname="BMHT Logo-Edited.svg"
   inkscape:version="1.1 (c68e22c387, 2021-05-23)"
   xmlns:inkscape="http://www.inkscape.org/namespaces/inkscape"
   xmlns:sodipodi="http://sodipodi.sourceforge.net/DTD/sodipodi-0.dtd"
   xmlns="http://www.w3.org/2000/svg"
   xmlns:svg="http://www.w3.org/2000/svg"><defs
   id="defs17" /><sodipodi:namedview
   id="namedview15"
   pagecolor="#ffffff"
   bordercolor="#666666"
   borderopacity="1.0"
   inkscape:pageshadow="2"
   inkscape:pageopacity="0.0"
   inkscape:pagecheckerboard="0"
   showgrid="false"
   inkscape:zoom="1.6233993"
   inkscape:cx="533.14055"
   inkscape:cy="298.44783"
   inkscape:window-width="1920"
   inkscape:window-height="1027"
   inkscape:window-x="282"
   inkscape:window-y="-8"
   inkscape:window-maximized="1"
   inkscape:current-layer="Layer_1" />
<style
   type="text/css"
   id="style2">
	.st0{fill:#DB8016;}
	.st1{fill:#C800DB;}
	.st2{fill:#70DB16;}
	.st3{fill:#0B9CBD;}
	.st4{opacity:0.5;fill:#DB8016;}
	.st5{opacity:0.35;fill:#C800DB;}
	.st6{opacity:0.5;fill:#70DB16;}
	.st7{opacity:0.4;fill:#0B9CBD;}
</style>
<polygon
   id="XMLID_50_"
   class="st0"
   points="216.2,180 189.8,330 239.8,330 248.6,280 298.6,280 307.4,230 257.4,230 266.2,180 "
   style="fill:#000000" />
<path
   id="XMLID_49_"
   class="st0"
   d="M316.2,180" />
<polygon
   id="XMLID_48_"
   class="st1"
   points="312.2,230 303.4,280 353.4,280 344.6,330 394.6,330 403.4,280 453.4,280 462.2,230 "
   style="fill:#000000" />
<polygon
   id="XMLID_47_"
   class="st2"
   points="575.2,180 566.4,230 516.4,230 507.6,280 557.6,280 548.8,330 598.8,330 625.2,180 "
   style="fill:#000000"
   transform="translate(4)" />
<polygon
   id="XMLID_46_"
   class="st3"
   points="620.4,230 611.6,280 761.6,280 770.4,230 720.4,230 729.2,180 679.2,180 670.4,230 "
   style="fill:#000000"
   transform="translate(4)" />
<path
   id="XMLID_45_"
   class="st4"
   d="m 254.09992,286.77591 -2.848,15.56067 L 246.26791,330 h 17.80003 c 14.77403,0 28.83605,-11.58406 31.41705,-25.93446 L 298.6,286.77591 Z"
   style="stroke-width:0.877149;fill:#000000" />
<path
   id="XMLID_44_"
   class="st5"
   d="M 302.07689,284.69693 285.8,380 h 18.49647 c 15.35207,0 29.96428,-12.77061 32.64627,-28.59092 l 11.37533,-66.71215 z"
   style="stroke-width:0.938821;fill:#000000" />
<path
   id="XMLID_43_"
   class="st5"
   d="M 406.13843,284.5735 389.50236,380 h 18.90463 c 15.69084,0 30.62549,-12.78715 33.36666,-28.62795 L 453.4,284.5735 Z"
   style="stroke-width:0.949737;fill:#000000" />
<path
   id="XMLID_41_"
   class="st6"
   d="M525.2,180l-21.2,120c-2.9,16.6-18.7,30-35.3,30h-20l26.4-150H525.2z"
   style="fill:#000000" />
<path
   id="XMLID_51_"
   class="st7"
   d="m 662.82004,283.54392 -17.6,100 h 20 c 16.6,0 32.4,-13.4 35.3,-30 l 12.3,-70 z"
   style="fill:#000000" />
</svg>
